<svg id="Layer_1" data-name="Layer 1" xmlns="http://www.w3.org/2000/svg" xmlns:xlink="http://www.w3.org/1999/xlink" viewBox="0 0 700 400"><defs><style>.cls-1{fill:url(#linear-gradient);}</style><linearGradient id="linear-gradient" x1="-31.47" y1="23.11" x2="881.21" y2="388.24" gradientUnits="userSpaceOnUse"><stop offset="0.1" stop-color="#fbb116"/><stop offset="0.33" stop-color="#e75d24"/><stop offset="0.35" stop-color="#e65629"/><stop offset="0.39" stop-color="#e14437"/><stop offset="0.43" stop-color="#db264e"/><stop offset="0.44" stop-color="#d81b57"/><stop offset="0.45" stop-color="#d51c57"/><stop offset="0.54" stop-color="#a5235c"/><stop offset="0.62" stop-color="#832860" stop-opacity="0.99"/><stop offset="0.69" stop-color="#6e2c62" stop-opacity="0.99"/><stop offset="0.73" stop-color="#662d63" stop-opacity="0.99"/></linearGradient></defs><path class="cls-1" d="M291,62.05V337.54c0,3-2.09,5.46-4.68,5.46H243.57c-2.58,0-4.67-2.44-4.67-5.46V287.68c0-3-2.1-5.46-4.68-5.46H97.73c-6.37,0-11.54-6-11.54-13.46V198a19.78,19.78,0,0,1,4.56-12.84l108.87-127a4.36,4.36,0,0,1,3.31-1.6h83.39C288.91,56.6,291,59,291,62.05ZM238.89,216V122.83c0-3-2.09-5.46-4.67-5.46H224.5a4.35,4.35,0,0,0-3.3,1.6l-81.89,95.52a4.5,4.5,0,0,0-1,2.88,3.81,3.81,0,0,0,3.49,4.07h92.44c2.58,0,4.68-2.44,4.68-5.45Zm99.44,125.45c-3.47,0-6.28-3.28-6.28-7.33V289.55c0-4.05,2.81-7.33,6.28-7.33h34.34c3.47,0,6.28,3.28,6.28,7.33v44.56c0,4.05-2.81,7.33-6.28,7.33ZM628.61,114.77a6,6,0,0,1,1.39,3.91V280.91a6.05,6.05,0,0,1-1.39,3.92l-48.48,56.54a4.42,4.42,0,0,1-3.35,1.63H471.9a4.4,4.4,0,0,1-3.35-1.63l-48.48-56.54a6.05,6.05,0,0,1-1.39-3.92V118.68a6,6,0,0,1,1.39-3.91l48.48-56.55a4.39,4.39,0,0,1,3.35-1.62H576.78a4.41,4.41,0,0,1,3.35,1.62l48.48,56.55Zm-50.72,141V143.85a6.09,6.09,0,0,0-1.38-3.91l-18-21a4.46,4.46,0,0,0-3.35-1.62H493.48a4.44,4.44,0,0,0-3.35,1.62l-18,21a6,6,0,0,0-1.39,3.91V255.74a6,6,0,0,0,1.39,3.91l18,21a4.44,4.44,0,0,0,3.35,1.62H555.2a4.44,4.44,0,0,0,3.35-1.62l18-21a6,6,0,0,0,1.39-3.91Z"/></svg>