<svg id="Layer_1" data-name="Layer 1" xmlns="http://www.w3.org/2000/svg" xmlns:xlink="http://www.w3.org/1999/xlink" viewBox="0 0 2129 297"><defs><style>.cls-1{fill:url(#linear-gradient);}</style><linearGradient id="linear-gradient" x1="450.97" y1="-455.53" x2="1262.81" y2="356.3" gradientUnits="userSpaceOnUse"><stop offset="0" stop-color="#fbb116"/><stop offset="0.32" stop-color="#e75d24"/><stop offset="0.39" stop-color="#e65629"/><stop offset="0.5" stop-color="#e14437"/><stop offset="0.63" stop-color="#db264e"/><stop offset="0.67" stop-color="#d81b57"/><stop offset="0.67" stop-color="#d31b57"/><stop offset="0.74" stop-color="#a31d5b"/><stop offset="0.79" stop-color="#801f5d"/><stop offset="0.83" stop-color="#6b205e"/><stop offset="0.86" stop-color="#63205f"/><stop offset="1" stop-color="#662d63" stop-opacity="0.99"/></linearGradient></defs><path class="cls-1" d="M144.49,71.6h23A2.49,2.49,0,0,1,170,74.1V200.85a2.49,2.49,0,0,1-2.49,2.5h-23a2.5,2.5,0,0,1-2.5-2.5V153.58a2.49,2.49,0,0,0-2.49-2.5h-56a2.5,2.5,0,0,0-2.5,2.5v47.27a2.5,2.5,0,0,1-2.5,2.5h-23a2.5,2.5,0,0,1-2.5-2.5V74.1a2.5,2.5,0,0,1,2.5-2.5h23A2.5,2.5,0,0,1,81,74.1v46.52a2.5,2.5,0,0,0,2.5,2.5h56a2.49,2.49,0,0,0,2.49-2.5V74.1A2.5,2.5,0,0,1,144.49,71.6Zm79.08,0h56.91a2.55,2.55,0,0,1,1.8.75l25.93,25.93a2.54,2.54,0,0,1,.75,1.8V200.79a2.56,2.56,0,0,1-2.55,2.56H283.56a2.56,2.56,0,0,1-2.56-2.56V171.16a2.56,2.56,0,0,0-2.55-2.56H225.6a2.56,2.56,0,0,0-2.55,2.56v29.63a2.56,2.56,0,0,1-2.55,2.56H197.64a2.56,2.56,0,0,1-2.55-2.56V100.08a2.55,2.55,0,0,1,.75-1.8l25.93-25.93A2.55,2.55,0,0,1,223.57,71.6Zm54.88,69.05a2.56,2.56,0,0,0,2.56-2.56V111.66a2.55,2.55,0,0,0-.75-1.8l-9.56-9.55a2.55,2.55,0,0,0-1.8-.75H235.16a2.56,2.56,0,0,0-1.81.75l-9.55,9.55a2.55,2.55,0,0,0-.75,1.8v26.43a2.56,2.56,0,0,0,2.55,2.56Zm53.63-42.36,26-26a2.51,2.51,0,0,1,1.77-.73h75.51a2.48,2.48,0,0,1,2.49,2.49v23a2.48,2.48,0,0,1-2.49,2.49H371.39a2.55,2.55,0,0,0-1.77.73L360,109.87a2.52,2.52,0,0,0-.74,1.77V163.3a2.5,2.5,0,0,0,.74,1.77l9.58,9.59a2.55,2.55,0,0,0,1.77.73h63.93a2.48,2.48,0,0,1,2.49,2.49v23a2.49,2.49,0,0,1-2.49,2.5H359.81a2.53,2.53,0,0,1-1.77-.73l-26-26a2.48,2.48,0,0,1-.73-1.76V100.06A2.51,2.51,0,0,1,332.08,98.29ZM572.56,71.6a2.59,2.59,0,0,1,2.59,2.59V93.37a2.6,2.6,0,0,1-.76,1.83L534,135.64a2.59,2.59,0,0,0,0,3.66l40.44,40.44a2.63,2.63,0,0,1,.76,1.83v19.19a2.59,2.59,0,0,1-2.59,2.59H549.78a2.59,2.59,0,0,1-2.59-2.59v-7.61a2.59,2.59,0,0,0-.76-1.83l-39.11-39.11a2.59,2.59,0,0,0-1.83-.76H488.74a2.59,2.59,0,0,0-2.59,2.59v46.72a2.59,2.59,0,0,1-2.58,2.59H460.78a2.59,2.59,0,0,1-2.59-2.59V74.19a2.59,2.59,0,0,1,2.59-2.59h22.79a2.59,2.59,0,0,1,2.58,2.59v46.72a2.59,2.59,0,0,0,2.59,2.58h16.75a2.59,2.59,0,0,0,1.83-.76l39.11-39.11a2.57,2.57,0,0,0,.76-1.83V74.18a2.59,2.59,0,0,1,2.58-2.58Zm137.15,28.46v74.83a2.48,2.48,0,0,1-.73,1.76l-26,26a2.49,2.49,0,0,1-1.76.74h-60a2.5,2.5,0,0,1-1.77-.74l-26-26a2.48,2.48,0,0,1-.73-1.76V100.06a2.47,2.47,0,0,1,.73-1.76l26-26a2.51,2.51,0,0,1,1.77-.73h60a2.47,2.47,0,0,1,1.76.73l26,26A2.47,2.47,0,0,1,709.71,100.06Zm-28,11.58a2.51,2.51,0,0,0-.73-1.77l-9.59-9.58a2.48,2.48,0,0,0-1.76-.73H632.8a2.47,2.47,0,0,0-1.76.73l-9.59,9.58a2.52,2.52,0,0,0-.74,1.77V163.3a2.5,2.5,0,0,0,.74,1.77l9.59,9.59a2.47,2.47,0,0,0,1.76.73h36.87a2.48,2.48,0,0,0,1.76-.73l9.59-9.59a2.49,2.49,0,0,0,.73-1.77Zm137.19,41.21a2.6,2.6,0,0,0,.76-1.83V74.2a2.59,2.59,0,0,1,2.6-2.6h22.75a2.59,2.59,0,0,1,2.6,2.6v88.4a2.59,2.59,0,0,1-.76,1.83l-38.15,38.15a2.56,2.56,0,0,1-1.83.77H771.46a2.61,2.61,0,0,1-1.84-.77l-38.15-38.15a2.57,2.57,0,0,1-.76-1.83V74.2a2.59,2.59,0,0,1,2.6-2.6h22.75a2.59,2.59,0,0,1,2.6,2.6V151a2.58,2.58,0,0,0,.77,1.83l21.77,21.78a2.64,2.64,0,0,0,1.84.76h12.29a2.64,2.64,0,0,0,1.84-.76l21.77-21.78ZM979.7,97a2.53,2.53,0,0,1-2.53,2.52H902a2.52,2.52,0,0,0-2.52,2.53V121a2.52,2.52,0,0,0,2.52,2.52h70a2.52,2.52,0,0,1,2.52,2.52v22.92a2.52,2.52,0,0,1-2.52,2.52H902a2.52,2.52,0,0,0-2.52,2.52v18.89a2.52,2.52,0,0,0,2.52,2.53h75.21a2.52,2.52,0,0,1,2.53,2.52v22.91a2.53,2.53,0,0,1-2.53,2.53H874a2.52,2.52,0,0,1-2.52-2.53V74.12A2.52,2.52,0,0,1,874,71.6H977.17a2.52,2.52,0,0,1,2.53,2.52Zm140.1-11.6V131a2.59,2.59,0,0,1-.74,1.8l-11.62,11.61a2.55,2.55,0,0,0,0,3.6l11.62,11.62a2.57,2.57,0,0,1,.74,1.8V200.8a2.55,2.55,0,0,1-2.54,2.55h-22.87a2.55,2.55,0,0,1-2.55-2.55V173a2.53,2.53,0,0,0-.74-1.8l-9.12-9.11a2.51,2.51,0,0,0-1.79-.75h-46.84a2.55,2.55,0,0,0-2.55,2.55v37a2.54,2.54,0,0,1-2.54,2.55h-22.87a2.55,2.55,0,0,1-2.54-2.55V74.14a2.54,2.54,0,0,1,2.54-2.54H1106l13.83,13.83Zm-28.7,35.73a2.57,2.57,0,0,0,.74-1.8V102.1a2.55,2.55,0,0,0-2.54-2.55h-56a2.55,2.55,0,0,0-2.55,2.55v28.7a2.55,2.55,0,0,0,2.55,2.54h44.51a2.55,2.55,0,0,0,1.8-.74l11.44-11.44ZM1253.15,97a2.53,2.53,0,0,1-2.53,2.53h-75.2a2.53,2.53,0,0,0-2.53,2.53V121a2.53,2.53,0,0,0,2.53,2.52h70a2.54,2.54,0,0,1,2.53,2.53v22.9a2.53,2.53,0,0,1-2.53,2.53h-70a2.53,2.53,0,0,0-2.53,2.53v46.84a2.53,2.53,0,0,1-2.52,2.53h-22.91a2.53,2.53,0,0,1-2.52-2.53V74.13a2.52,2.52,0,0,1,2.52-2.53h103.16a2.53,2.53,0,0,1,2.53,2.53Zm47.53-22.93v98.78a2.5,2.5,0,0,0,2.5,2.51h64.68a2.5,2.5,0,0,1,2.5,2.5v23a2.51,2.51,0,0,1-2.5,2.51h-92.63a2.51,2.51,0,0,1-2.51-2.51V74.1a2.5,2.5,0,0,1,2.51-2.5h22.94A2.5,2.5,0,0,1,1300.68,74.1Zm200,26v74.83a2.48,2.48,0,0,1-.73,1.76l-26,26a2.47,2.47,0,0,1-1.76.74h-60a2.47,2.47,0,0,1-1.76-.74l-26-26a2.48,2.48,0,0,1-.73-1.76V100.06a2.47,2.47,0,0,1,.73-1.76l26-26a2.47,2.47,0,0,1,1.76-.73h60a2.47,2.47,0,0,1,1.76.73l26,26A2.47,2.47,0,0,1,1500.71,100.06Zm-28,11.58a2.51,2.51,0,0,0-.73-1.77l-9.59-9.58a2.47,2.47,0,0,0-1.76-.73H1423.8a2.47,2.47,0,0,0-1.76.73l-9.59,9.58a2.51,2.51,0,0,0-.73,1.77V163.3a2.49,2.49,0,0,0,.73,1.77l9.59,9.59a2.48,2.48,0,0,0,1.76.73h36.87a2.47,2.47,0,0,0,1.76-.73l9.59-9.59a2.49,2.49,0,0,0,.73-1.77Zm176.16,63.75a2.55,2.55,0,0,0,2.54-2.56V74.15A2.56,2.56,0,0,1,1654,71.6h22.85a2.55,2.55,0,0,1,2.55,2.55V182.88a8.24,8.24,0,0,1-2.42,5.84l-12.2,12.2a8.26,8.26,0,0,1-5.84,2.42h-37.68a2.55,2.55,0,0,1-1.81-.74l-16.06-16.07a2.57,2.57,0,0,0-3.61,0l-16.06,16.07a2.55,2.55,0,0,1-1.81.74h-37.68a8.26,8.26,0,0,1-5.84-2.42l-12.2-12.2a8.24,8.24,0,0,1-2.42-5.84V74.15a2.55,2.55,0,0,1,2.55-2.55h22.86a2.55,2.55,0,0,1,2.55,2.55v98.69a2.55,2.55,0,0,0,2.55,2.55h16a2.56,2.56,0,0,0,1.81-.75l14.72-14.72a2.56,2.56,0,0,0,.75-1.81V74.22a2.62,2.62,0,0,1,2.62-2.62H1613a2.62,2.62,0,0,1,2.62,2.62v83.89a2.59,2.59,0,0,0,.74,1.81l14.73,14.72a2.52,2.52,0,0,0,1.8.75ZM1879.09,74.11V200.83a2.51,2.51,0,0,1-2.51,2.51h-22.94a2.51,2.51,0,0,1-2.51-2.51V177.9a2.51,2.51,0,0,0-2.51-2.51h-73.24a6.19,6.19,0,0,1-6.19-6.19V136.66a8.37,8.37,0,0,1,2.45-5.91l58.42-58.42a2.51,2.51,0,0,1,1.77-.73h44.75A2.51,2.51,0,0,1,1879.09,74.11Zm-28,70.81V102.06a2.51,2.51,0,0,0-2.51-2.51h-5.21a2.5,2.5,0,0,0-1.77.74l-43.94,43.94a1.87,1.87,0,0,0,1.32,3.2h49.6a2.51,2.51,0,0,0,2.51-2.51Zm53.36,57.71a3.37,3.37,0,0,1-3.37-3.37v-20.5a3.37,3.37,0,0,1,3.37-3.37h18.43a3.37,3.37,0,0,1,3.37,3.37v20.5a3.37,3.37,0,0,1-3.37,3.37ZM2060.25,98.36a2.52,2.52,0,0,1,.75,1.8v74.62a2.52,2.52,0,0,1-.75,1.8l-26,26a2.57,2.57,0,0,1-1.8.74h-56.28a2.59,2.59,0,0,1-1.8-.74l-26-26a2.52,2.52,0,0,1-.75-1.8V100.16a2.52,2.52,0,0,1,.75-1.8l26-26a2.59,2.59,0,0,1,1.8-.74h56.28a2.57,2.57,0,0,1,1.8.74l26,26ZM2033,163.2V111.73a2.51,2.51,0,0,0-.75-1.79l-9.63-9.64a2.55,2.55,0,0,0-1.8-.75h-33.12a2.55,2.55,0,0,0-1.8.75l-9.63,9.64a2.51,2.51,0,0,0-.75,1.79V163.2a2.52,2.52,0,0,0,.75,1.8l9.63,9.64a2.54,2.54,0,0,0,1.8.74h33.12a2.53,2.53,0,0,0,1.8-.74l9.64-9.64a2.55,2.55,0,0,0,.74-1.8Z"/></svg>