<svg id="Layer_1" data-name="Layer 1" xmlns="http://www.w3.org/2000/svg" xmlns:xlink="http://www.w3.org/1999/xlink" viewBox="0 0 2104 205"><defs><style>.cls-1{fill:url(#linear-gradient);}</style><linearGradient id="linear-gradient" x1="110" y1="106.97" x2="1736.41" y2="106.97" gradientUnits="userSpaceOnUse"><stop offset="0" stop-color="#fbb116"/><stop offset="0.32" stop-color="#e75d24"/><stop offset="0.39" stop-color="#e65629"/><stop offset="0.5" stop-color="#e14437"/><stop offset="0.63" stop-color="#db264e"/><stop offset="0.67" stop-color="#d81b57"/><stop offset="0.67" stop-color="#d31b57"/><stop offset="0.74" stop-color="#a31d5b"/><stop offset="0.79" stop-color="#801f5d"/><stop offset="0.83" stop-color="#6b205e"/><stop offset="0.86" stop-color="#63205f"/><stop offset="1" stop-color="#662d63" stop-opacity="0.99"/></linearGradient></defs><path class="cls-1" d="M201.49,41.1h23A2.49,2.49,0,0,1,227,43.6V170.35a2.49,2.49,0,0,1-2.49,2.5h-23a2.5,2.5,0,0,1-2.5-2.5V123.08a2.49,2.49,0,0,0-2.49-2.5h-56a2.5,2.5,0,0,0-2.5,2.5v47.27a2.5,2.5,0,0,1-2.5,2.5h-23a2.5,2.5,0,0,1-2.5-2.5V43.6a2.5,2.5,0,0,1,2.5-2.5h23a2.5,2.5,0,0,1,2.5,2.5V90.12a2.5,2.5,0,0,0,2.5,2.5h56a2.49,2.49,0,0,0,2.49-2.5V43.6A2.5,2.5,0,0,1,201.49,41.1Zm79.08,0h56.91a2.55,2.55,0,0,1,1.8.75l25.93,25.93a2.54,2.54,0,0,1,.75,1.8V170.29a2.56,2.56,0,0,1-2.55,2.56H340.56a2.56,2.56,0,0,1-2.56-2.56V140.66a2.56,2.56,0,0,0-2.55-2.56H282.6a2.56,2.56,0,0,0-2.55,2.56v29.63a2.56,2.56,0,0,1-2.55,2.56H254.64a2.56,2.56,0,0,1-2.55-2.56V69.58a2.55,2.55,0,0,1,.75-1.8l25.93-25.93A2.55,2.55,0,0,1,280.57,41.1Zm54.88,69.05a2.56,2.56,0,0,0,2.56-2.56V81.16a2.55,2.55,0,0,0-.75-1.8l-9.56-9.55a2.55,2.55,0,0,0-1.8-.75H292.16a2.56,2.56,0,0,0-1.81.75l-9.55,9.55a2.55,2.55,0,0,0-.75,1.8v26.43a2.56,2.56,0,0,0,2.55,2.56Zm53.63-42.36,26-26a2.51,2.51,0,0,1,1.77-.73h75.51a2.48,2.48,0,0,1,2.49,2.49v23a2.48,2.48,0,0,1-2.49,2.49H428.39a2.55,2.55,0,0,0-1.77.73L417,79.37a2.52,2.52,0,0,0-.74,1.77V132.8a2.5,2.5,0,0,0,.74,1.77l9.58,9.59a2.55,2.55,0,0,0,1.77.73h63.93a2.48,2.48,0,0,1,2.49,2.49v23a2.49,2.49,0,0,1-2.49,2.5H416.81a2.53,2.53,0,0,1-1.77-.73l-26-26a2.48,2.48,0,0,1-.73-1.76V69.56A2.51,2.51,0,0,1,389.08,67.79ZM629.56,41.1a2.59,2.59,0,0,1,2.59,2.59V62.87a2.6,2.6,0,0,1-.76,1.83L591,105.14a2.59,2.59,0,0,0,0,3.66l40.44,40.44a2.63,2.63,0,0,1,.76,1.83v19.19a2.59,2.59,0,0,1-2.59,2.59H606.78a2.59,2.59,0,0,1-2.59-2.59v-7.61a2.59,2.59,0,0,0-.76-1.83l-39.11-39.11a2.59,2.59,0,0,0-1.83-.76H545.74a2.59,2.59,0,0,0-2.59,2.59v46.72a2.59,2.59,0,0,1-2.58,2.59H517.78a2.59,2.59,0,0,1-2.59-2.59V43.69a2.59,2.59,0,0,1,2.59-2.59h22.79a2.59,2.59,0,0,1,2.58,2.59V90.41A2.59,2.59,0,0,0,545.74,93h16.75a2.59,2.59,0,0,0,1.83-.76l39.11-39.11a2.57,2.57,0,0,0,.76-1.83V43.68a2.59,2.59,0,0,1,2.58-2.58ZM766.71,69.56v74.83a2.48,2.48,0,0,1-.73,1.76l-26,26a2.49,2.49,0,0,1-1.76.74h-60a2.5,2.5,0,0,1-1.77-.74l-26-26a2.48,2.48,0,0,1-.73-1.76V69.56a2.47,2.47,0,0,1,.73-1.76l26-26a2.51,2.51,0,0,1,1.77-.73h60a2.47,2.47,0,0,1,1.76.73l26,26A2.47,2.47,0,0,1,766.71,69.56Zm-28,11.58a2.51,2.51,0,0,0-.73-1.77l-9.59-9.58a2.48,2.48,0,0,0-1.76-.73H689.8a2.47,2.47,0,0,0-1.76.73l-9.59,9.58a2.52,2.52,0,0,0-.74,1.77V132.8a2.5,2.5,0,0,0,.74,1.77l9.59,9.59a2.47,2.47,0,0,0,1.76.73h36.87a2.48,2.48,0,0,0,1.76-.73l9.59-9.59a2.49,2.49,0,0,0,.73-1.77Zm137.19,41.21a2.6,2.6,0,0,0,.76-1.83V43.7a2.59,2.59,0,0,1,2.6-2.6h22.75a2.59,2.59,0,0,1,2.6,2.6v88.4a2.59,2.59,0,0,1-.76,1.83l-38.15,38.15a2.56,2.56,0,0,1-1.83.77H828.46a2.61,2.61,0,0,1-1.84-.77l-38.15-38.15a2.57,2.57,0,0,1-.76-1.83V43.7a2.59,2.59,0,0,1,2.6-2.6h22.75a2.59,2.59,0,0,1,2.6,2.6v76.82a2.58,2.58,0,0,0,.77,1.83l21.77,21.78a2.64,2.64,0,0,0,1.84.76h12.29a2.64,2.64,0,0,0,1.84-.76l21.77-21.78ZM1036.7,66.53a2.53,2.53,0,0,1-2.53,2.52H959a2.52,2.52,0,0,0-2.52,2.53V90.47A2.52,2.52,0,0,0,959,93h70a2.52,2.52,0,0,1,2.52,2.52v22.92a2.52,2.52,0,0,1-2.52,2.52H959a2.52,2.52,0,0,0-2.52,2.52v18.89a2.52,2.52,0,0,0,2.52,2.53h75.21a2.52,2.52,0,0,1,2.53,2.52v22.91a2.53,2.53,0,0,1-2.53,2.53H931a2.52,2.52,0,0,1-2.52-2.53V43.62A2.52,2.52,0,0,1,931,41.1h103.17a2.52,2.52,0,0,1,2.53,2.52Zm140.1-11.6v45.52a2.59,2.59,0,0,1-.74,1.8l-11.62,11.61a2.55,2.55,0,0,0,0,3.6l11.62,11.62a2.57,2.57,0,0,1,.74,1.8V170.3a2.55,2.55,0,0,1-2.54,2.55h-22.87a2.55,2.55,0,0,1-2.55-2.55V142.46a2.53,2.53,0,0,0-.74-1.8l-9.12-9.11a2.51,2.51,0,0,0-1.79-.75h-46.84a2.55,2.55,0,0,0-2.55,2.55v37a2.54,2.54,0,0,1-2.54,2.55h-22.87a2.55,2.55,0,0,1-2.54-2.55V43.64a2.54,2.54,0,0,1,2.54-2.54H1163l13.83,13.83Zm-28.7,35.73a2.57,2.57,0,0,0,.74-1.8V71.6a2.55,2.55,0,0,0-2.54-2.55h-56a2.55,2.55,0,0,0-2.55,2.55v28.7a2.55,2.55,0,0,0,2.55,2.54h44.51a2.55,2.55,0,0,0,1.8-.74l11.44-11.44Zm162.05-24.13a2.53,2.53,0,0,1-2.53,2.53h-75.2a2.53,2.53,0,0,0-2.53,2.53V90.47a2.53,2.53,0,0,0,2.53,2.52h70a2.54,2.54,0,0,1,2.53,2.53v22.9a2.53,2.53,0,0,1-2.53,2.53h-70a2.53,2.53,0,0,0-2.53,2.53v46.84a2.53,2.53,0,0,1-2.52,2.53h-22.91a2.53,2.53,0,0,1-2.52-2.53V43.63a2.52,2.52,0,0,1,2.52-2.53h103.16a2.53,2.53,0,0,1,2.53,2.53Zm47.53-22.93v98.78a2.5,2.5,0,0,0,2.5,2.51h64.68a2.5,2.5,0,0,1,2.5,2.5v23a2.51,2.51,0,0,1-2.5,2.51h-92.63a2.51,2.51,0,0,1-2.51-2.51V43.6a2.5,2.5,0,0,1,2.51-2.5h22.94A2.5,2.5,0,0,1,1357.68,43.6Zm200,26v74.83a2.48,2.48,0,0,1-.73,1.76l-26,26a2.47,2.47,0,0,1-1.76.74h-60a2.47,2.47,0,0,1-1.76-.74l-26-26a2.48,2.48,0,0,1-.73-1.76V69.56a2.47,2.47,0,0,1,.73-1.76l26-26a2.47,2.47,0,0,1,1.76-.73h60a2.47,2.47,0,0,1,1.76.73l26,26A2.47,2.47,0,0,1,1557.71,69.56Zm-28,11.58a2.51,2.51,0,0,0-.73-1.77l-9.59-9.58a2.47,2.47,0,0,0-1.76-.73H1480.8a2.47,2.47,0,0,0-1.76.73l-9.59,9.58a2.51,2.51,0,0,0-.73,1.77V132.8a2.49,2.49,0,0,0,.73,1.77l9.59,9.59a2.48,2.48,0,0,0,1.76.73h36.87a2.47,2.47,0,0,0,1.76-.73l9.59-9.59a2.49,2.49,0,0,0,.73-1.77Zm176.16,63.75a2.55,2.55,0,0,0,2.54-2.56V43.65A2.56,2.56,0,0,1,1711,41.1h22.85a2.55,2.55,0,0,1,2.55,2.55V152.38a8.24,8.24,0,0,1-2.42,5.84l-12.2,12.2a8.26,8.26,0,0,1-5.84,2.42h-37.68a2.55,2.55,0,0,1-1.81-.74L1660.4,156a2.57,2.57,0,0,0-3.61,0l-16.06,16.07a2.55,2.55,0,0,1-1.81.74h-37.68a8.26,8.26,0,0,1-5.84-2.42l-12.2-12.2a8.24,8.24,0,0,1-2.42-5.84V43.65a2.55,2.55,0,0,1,2.55-2.55h22.86a2.55,2.55,0,0,1,2.55,2.55v98.69a2.55,2.55,0,0,0,2.55,2.55h16a2.56,2.56,0,0,0,1.81-.75l14.72-14.72a2.56,2.56,0,0,0,.75-1.81V43.72a2.62,2.62,0,0,1,2.62-2.62H1670a2.62,2.62,0,0,1,2.62,2.62v83.89a2.59,2.59,0,0,0,.74,1.81l14.73,14.72a2.52,2.52,0,0,0,1.8.75Z"/></svg>